<?xml version="1.0" encoding="UTF-8" standalone="no"?>
<svg width="50px" height="50px" viewBox="0 0 50 50" version="1.1" xmlns="http://www.w3.org/2000/svg" xmlns:xlink="http://www.w3.org/1999/xlink">
    <!-- Generator: Sketch 47.1 (45422) - http://www.bohemiancoding.com/sketch -->
    <title>barbell</title>
    <desc>Created with Sketch.</desc>
    <defs>
        <polygon id="path-1" points="0.005859375 50 50 50 50 0 0.005859375 0"></polygon>
    </defs>
    <g id="Page-1" stroke="none" stroke-width="1" fill="none" fill-rule="evenodd">
        <g id="Members_Calendar" transform="translate(-616.000000, -662.000000)">
            <g id="barbell" transform="translate(616.000000, 662.000000)">
                <g id="Group-3">
                    <mask id="mask-2" fill="white">
                        <use xlink:href="#path-1"></use>
                    </mask>
                    <g id="Clip-2"></g>
                    <path d="M25,0 C38.8071289,0 50,11.1928711 50,25 C50,38.8071289 38.8071289,50 25,50 C11.1928711,50 0,38.8071289 0,25 C0,11.1928711 11.1928711,0 25,0" id="Fill-1" fill="#D51919" mask="url(#mask-2)"></path>
                </g>
                <path d="M50,25 C50,24.4625 49.980957,23.9294922 49.9476562,23.400293 L42.9837891,16.4365234 L42.7234375,16.4725586 L41.4862305,15.2353516 L41.374707,15.5991211 L39.8149414,14.0392578 L39.3797852,16.8099609 L36.7179687,14.1481445 L35.9313477,17.4137695 L23.4427734,18.2660156 L21.6890625,17.9292969 L18.7541992,18.2939453 L14.4841797,14.1356445 L14.3491211,17.165625 L11.3320312,14.1483398 L10.8390625,19.2774414 L7.08144531,19.7442383 L13.6644531,26.3274414 L13.6644531,35.3863281 L13.1804687,35.8167969 L10.1851562,36.8076172 L23.3202148,49.9425781 C23.8755859,49.9794922 24.4353516,50 25,50 C38.8070312,50 50,38.8070312 50,25" id="Fill-4" fill="#A70F0F"></path>
                <path d="M16.6666992,34.3855469 L14.7306641,34.3855469 L14.7306641,14.7306641 C14.7306641,14.2658203 14.3537109,13.8888672 13.8888672,13.8888672 C13.4241211,13.8888672 13.047168,14.2658203 13.047168,14.7306641 L13.047168,34.3855469 L11.1111328,34.3855469 C10.3441406,34.3855469 9.72226563,35.0074219 9.72226563,35.7744141 C9.72226563,36.5414063 10.3441406,37.1632813 11.1111328,37.1632813 L16.6666992,37.1632813 C17.4336914,37.1632813 18.0555664,36.5414063 18.0555664,35.7744141 C18.0555664,35.0074219 17.4336914,34.3855469 16.6666992,34.3855469" id="Fill-5" fill="#DBDBDB"></path>
                <path d="M38.8888672,34.3855469 L36.952832,34.3855469 L36.952832,14.7306641 C36.952832,14.2658203 36.5758789,13.8888672 36.1111328,13.8888672 C35.6462891,13.8888672 35.2693359,14.2658203 35.2693359,14.7306641 L35.2693359,34.3855469 L33.3333008,34.3855469 C32.5663086,34.3855469 31.9444336,35.0074219 31.9444336,35.7744141 C31.9444336,36.5414063 32.5663086,37.1632813 33.3333008,37.1632813 L38.8888672,37.1632813 C39.6558594,37.1632813 40.2777344,36.5414063 40.2777344,35.7744141 C40.2777344,35.0074219 39.6558594,34.3855469 38.8888672,34.3855469" id="Fill-6" fill="#DBDBDB"></path>
                <path d="M42.7609375,18.8972656 L7.2390625,18.8972656 C6.77421875,18.8972656 6.39726563,18.5204102 6.39726563,18.0555664 C6.39726563,17.5907227 6.77421875,17.2137695 7.2390625,17.2137695 L42.7609375,17.2137695 C43.2257813,17.2137695 43.6027344,17.5907227 43.6027344,18.0555664 C43.6027344,18.5204102 43.2257813,18.8972656 42.7609375,18.8972656" id="Fill-7" fill="#797B79"></path>
                <path d="M42.7609375,17.2137695 L24.9439453,17.2137695 L24.9439453,18.8972656 L42.7609375,18.8972656 C43.2257813,18.8972656 43.6027344,18.5204102 43.6027344,18.0555664 C43.6027344,17.5907227 43.2257813,17.2137695 42.7609375,17.2137695" id="Fill-8" fill="#A2A2A2"></path>
                <path d="M10.6902344,22.2222656 L10.6902344,22.2222656 C11.2016602,22.2222656 11.6161133,21.8077148 11.6161133,21.2962891 L11.6161133,14.8148438 C11.6161133,14.3033203 11.2016602,13.8888672 10.6902344,13.8888672 C10.1788086,13.8888672 9.76435547,14.3033203 9.76435547,14.8148438 L9.76435547,21.2962891 C9.76435547,21.8077148 10.1788086,22.2222656 10.6902344,22.2222656" id="Fill-9" fill="#383835"></path>
                <path d="M7.49863281,19.9074219 L8.11601562,19.9074219 C8.45693359,19.9074219 8.73330078,19.630957 8.73330078,19.2900391 L8.73330078,16.8209961 C8.73330078,16.4801758 8.45693359,16.2037109 8.11601562,16.2037109 L7.49863281,16.2037109 C7.15771484,16.2037109 6.88134766,16.4801758 6.88134766,16.8209961 L6.88134766,19.2902344 C6.88134766,19.630957 7.15771484,19.9074219 7.49863281,19.9074219" id="Fill-10" fill="#20201E"></path>
                <path d="M9.13388672,21.1700195 L9.38466797,21.1700195 C9.82675781,21.1700195 10.1851563,20.8116211 10.1851563,20.3695312 L10.1851563,15.7416016 C10.1851563,15.2995117 9.82675781,14.9411133 9.38466797,14.9411133 L9.13388672,14.9411133 C8.69179688,14.9411133 8.33330078,15.2995117 8.33330078,15.7416016 L8.33330078,20.3695312 C8.33330078,20.8116211 8.69179688,21.1700195 9.13388672,21.1700195" id="Fill-11" fill="#525251"></path>
                <path d="M39.3097656,13.8888672 L39.3097656,13.8888672 C38.7983398,13.8888672 38.3838867,14.3033203 38.3838867,14.8148438 L38.3838867,21.2962891 C38.3838867,21.8077148 38.7983398,22.2222656 39.3097656,22.2222656 C39.8211914,22.2222656 40.2356445,21.8077148 40.2356445,21.2962891 L40.2356445,14.8148438 C40.2356445,14.3033203 39.8211914,13.8888672 39.3097656,13.8888672" id="Fill-12" fill="#383835"></path>
                <path d="M42.5013672,16.2037109 L41.8839844,16.2037109 C41.5430664,16.2037109 41.2666992,16.4801758 41.2666992,16.8209961 L41.2666992,19.2902344 C41.2666992,19.6311523 41.5430664,19.9076172 41.8839844,19.9076172 L42.5013672,19.9076172 C42.8422852,19.9076172 43.1186523,19.6311523 43.1186523,19.2902344 L43.1186523,16.8209961 C43.1186523,16.4801758 42.8422852,16.2037109 42.5013672,16.2037109" id="Fill-13" fill="#20201E"></path>
                <path d="M40.8661133,14.9411133 L40.615332,14.9411133 C40.1732422,14.9411133 39.8148437,15.2995117 39.8148437,15.7416016 L39.8148437,20.3695312 C39.8148437,20.8116211 40.1732422,21.1700195 40.615332,21.1700195 L40.8661133,21.1700195 C41.3082031,21.1700195 41.6666992,20.8116211 41.6666992,20.3695312 L41.6666992,15.7416016 C41.6666992,15.2995117 41.3082031,14.9411133 40.8661133,14.9411133" id="Fill-14" fill="#525251"></path>
            </g>
        </g>
    </g>
</svg>