<?xml version="1.0" encoding="UTF-8" standalone="no"?>
<svg width="50px" height="50px" viewBox="0 0 50 50" version="1.1" xmlns="http://www.w3.org/2000/svg" xmlns:xlink="http://www.w3.org/1999/xlink">
    <!-- Generator: Sketch 47.1 (45422) - http://www.bohemiancoding.com/sketch -->
    <title>treadmill</title>
    <desc>Created with Sketch.</desc>
    <defs>
        <polygon id="path-1" points="0.005859375 50 50 50 50 0 0.005859375 0"></polygon>
    </defs>
    <g id="Page-1" stroke="none" stroke-width="1" fill="none" fill-rule="evenodd">
        <g id="Members_Calendar" transform="translate(-616.000000, -465.000000)">
            <g id="treadmill" transform="translate(616.000000, 465.000000)">
                <g id="Group-3">
                    <mask id="mask-2" fill="white">
                        <use xlink:href="#path-1"></use>
                    </mask>
                    <g id="Clip-2"></g>
                    <path d="M25,0 C38.8071289,0 50,11.1928711 50,25 C50,38.8071289 38.8071289,50 25,50 C11.1928711,50 0,38.8071289 0,25 C0,11.1928711 11.1928711,0 25,0" id="Fill-1" fill="#D51919" mask="url(#mask-2)"></path>
                </g>
                <path d="M47.8070313,35.2530273 L25.4179688,12.8639648 L16.7649414,16.2458008 L16.7649414,32.393457 L18.4802734,34.1087891 L10.9929688,36.4730469 L24.5136719,49.99375 C24.6753906,49.9967773 24.8374023,50 24.9998047,50 C35.1533203,50 43.8925781,43.947168 47.8070313,35.2530273" id="Fill-4" fill="#A70F0F"></path>
                <polyline id="Fill-5" fill="#A2A2A2" points="18.1283203 32.5267578 10.4462891 32.5267578 17.6125 13.2338867 20.1902344 13.2338867 18.1283203 32.5267578"></polyline>
                <path d="M37.0959961,38.0807617 L14.5875,38.0807617 C11.9237305,38.0807617 9.76435547,35.9213867 9.76435547,33.2576172 C9.76435547,30.59375 11.9237305,28.434375 14.5875,28.434375 L37.0959961,28.434375 C39.7597656,28.434375 41.9192383,30.59375 41.9192383,33.2576172 C41.9192383,35.9213867 39.7597656,38.0807617 37.0959961,38.0807617" id="Fill-6" fill="#797B79"></path>
                <path d="M9.76445312,33.2491211 C9.76445312,33.2520508 9.76435547,33.2546875 9.76435547,33.2576172 C9.76435547,35.9213867 11.9237305,38.0807617 14.5875,38.0807617 L37.0959961,38.0807617 C39.7597656,38.0807617 41.9192383,35.9213867 41.9192383,33.2576172 C41.9192383,33.2546875 41.919043,33.2520508 41.919043,33.2491211 L9.76445312,33.2491211" id="Fill-7" fill="#525251"></path>
                <polygon id="Fill-8" fill="#525251" points="16.1953125 35.5962891 35.4881836 35.5962891 35.4881836 30.9192383 16.1953125 30.9192383"></polygon>
                <polygon id="Fill-9" fill="#20201E" points="16.1953125 35.5960937 35.4881836 35.5960937 35.4881836 33.2491211 16.1953125 33.2491211"></polygon>
                <path d="M14.5875,30.0420898 C16.3633789,30.0420898 17.8030273,31.4817383 17.8030273,33.2576172 C17.8030273,35.0333984 16.3633789,36.4730469 14.5875,36.4730469 C12.8117188,36.4730469 11.3720703,35.0333984 11.3720703,33.2576172 C11.3720703,31.4817383 12.8117188,30.0420898 14.5875,30.0420898" id="Fill-10" fill="#FFFFFE"></path>
                <path d="M11.3723633,33.2491211 C11.3723633,33.2520508 11.371875,33.2546875 11.371875,33.2576172 C11.371875,35.0334961 12.8114258,36.4730469 14.5874023,36.4730469 C16.3632813,36.4730469 17.802832,35.0334961 17.802832,33.2576172 C17.802832,33.2546875 17.8025391,33.2520508 17.8023438,33.2491211 L11.3723633,33.2491211" id="Fill-11" fill="#CCCCC9"></path>
                <path d="M37.0959961,30.0420898 C38.8717773,30.0420898 40.3114258,31.4817383 40.3114258,33.2576172 C40.3114258,35.0333984 38.8717773,36.4730469 37.0959961,36.4730469 C35.3201172,36.4730469 33.8804688,35.0333984 33.8804688,33.2576172 C33.8804688,31.4817383 35.3201172,30.0420898 37.0959961,30.0420898" id="Fill-12" fill="#FFFFFE"></path>
                <path d="M33.8807617,33.2491211 C33.8807617,33.2520508 33.8802734,33.2546875 33.8802734,33.2576172 C33.8802734,35.0334961 35.3198242,36.4730469 37.0958008,36.4730469 C38.8716797,36.4730469 40.3113281,35.0334961 40.3113281,33.2576172 C40.3113281,33.2546875 40.3109375,33.2520508 40.3109375,33.2491211 L33.8807617,33.2491211" id="Fill-13" fill="#CCCCC9"></path>
                <path d="M16.6587891,9.60488281 L18.9474609,11.8935547 C19.2442383,12.1904297 19.6466797,12.3570313 20.0663086,12.3570313 L24.2597656,12.3570313 C25.1336914,12.3570313 25.8418945,13.0655273 25.8418945,13.9392578 L25.8418945,13.9902344 C25.8418945,14.8641602 25.1334961,15.5723633 24.2597656,15.5723633 L17.1734375,15.5723633 C16.5741211,15.5723633 16.0262695,15.2338867 15.7582031,14.6978516 L14.1249023,11.4313477 C13.5986328,10.3792969 14.3636719,9.14140625 15.5399414,9.14140625 C15.9595703,9.14140625 16.3619141,9.30810547 16.6587891,9.60488281" id="Fill-14" fill="#DBDBDB"></path>
            </g>
        </g>
    </g>
</svg>